<?xml version="1.0" encoding="utf-8"?>
  <svg version="1.1" id="Ebene_1" xmlns="http://www.w3.org/2000/svg" xmlns:xlink="http://www.w3.org/1999/xlink" x="0px" y="0px"
     viewBox="0 0 800 265" style="enable-background:new 0 0 800 265;" xml:space="preserve">
    <g>
      <g>
        <polygon points="326.57,109.92 356.15,95.8 326.57,81.69" fill="#FFFFFF"/>
      </g>
    </g>      
    <g>
      <polygon points="317.51,77.37 271.54,55.44 271.54,136.17 317.51,114.24" fill="#DCE6E6"/>
    </g>      
    <g>
      <g>
        <path fill="#FFFFFF" d="M46.63,53.55c14.33,0,25.21,3.58,32.64,10.75c7.43,7.16,11.14,17.84,11.14,32.01
          c0,14.41-3.79,24.97-11.37,31.68c-7.58,6.71-18.81,10.07-33.66,10.07c-3.79,0-7.45-0.17-10.98-0.51c-3.53-0.34-7-0.74-10.41-1.19
          V55.14c1.14-0.15,2.58-0.32,4.32-0.51c1.74-0.19,3.64-0.36,5.69-0.51c2.05-0.15,4.15-0.28,6.31-0.4
          C42.48,53.61,44.58,53.55,46.63,53.55z M44.13,120.2c0.53,0.08,1.14,0.12,1.82,0.12c0.68,0,1.4,0,2.16,0
          c2.96,0,5.74-0.36,8.36-1.08c2.61-0.72,4.87-1.99,6.77-3.81c1.89-1.82,3.39-4.28,4.49-7.39c1.1-3.11,1.65-7.09,1.65-11.94
          c0-4.78-0.57-8.76-1.71-11.94c-1.14-3.18-2.63-5.7-4.49-7.56c-1.86-1.86-4.04-3.18-6.54-3.98c-2.5-0.8-5.12-1.19-7.85-1.19
          c-1.52,0-2.61,0.02-3.3,0.06c-0.68,0.04-1.14,0.06-1.36,0.06L44.13,120.2L44.13,120.2z"/>
        <path fill="#FFFFFF" d="M110.29,137.38c-2.81,0-6.18-0.34-10.12-1.02V55.14c2.05-0.3,3.9-0.53,5.57-0.68
          c1.67-0.15,3.15-0.23,4.44-0.23c1.36,0,2.9,0.08,4.61,0.23c1.71,0.15,3.54,0.38,5.52,0.68v81.21
          C116.28,137.03,112.94,137.38,110.29,137.38z"/>
        <path fill="#FFFFFF" d="M164.43,110.19l15.58-55.05c1.74-0.3,3.51-0.53,5.29-0.68c1.78-0.15,3.66-0.23,5.63-0.23
          c1.29,0,2.88,0.1,4.78,0.28c1.89,0.19,3.56,0.4,5.01,0.63l-26.16,81.32c-1.97,0.3-3.81,0.53-5.52,0.68
          c-1.71,0.15-3.36,0.23-4.95,0.23c-1.52,0-3.07-0.08-4.66-0.23c-1.59-0.15-3.49-0.38-5.69-0.68l-26.05-81.32
          c1.29-0.23,2.99-0.43,5.12-0.63c2.12-0.19,4.17-0.28,6.14-0.28c1.59,0,3.34,0.1,5.23,0.28c1.89,0.19,3.56,0.4,5.01,0.63
          L164.43,110.19z"/>
        <path fill="#FFFFFF" d="M251.21,94.04c0,2.65-0.34,5.61-1.02,8.87h-21.95v16.15h28.55c0.68,3.18,1.02,6.07,1.02,8.65
          c0,2.81-0.34,5.8-1.02,8.98H208.1V54.92h48c0.3,1.67,0.53,3.22,0.68,4.66c0.15,1.44,0.23,2.81,0.23,4.1c0,2.5-0.3,5.5-0.91,8.98
          h-27.87v12.51h21.95C250.86,88.51,251.21,91.46,251.21,94.04z"/>
      </g>
    </g>  
    <g>
      <path fill="#FFFFFF" d="M755,70.22v-2.87c-24.86,1.68-14.51,20.77-3.65,38.45c-2.27-0.08-4.58-0.13-6.86-0.13
        c-20.78,0-42.16,3.4-63.53,10.11c-1.11-7.32-2.98-14.64-5.58-21.78c-0.11-0.33-0.42-0.55-0.77-0.55c-0.03,0-0.05,0-0.08,0
        c-2.04,0.18-4.72,3.14-8.79,7.61c-8.28,9.1-20.78,22.86-36.85,22.86c-3.22,0-5.62-1.08-6.75-3.04c-1.21-2.09-0.93-5.08,0.75-7.98
        c2.91-5.04,10.4-10.43,22.68-10.42c2.96,0,6.1,0.32,9.32,0.95c0.05,0.01,0.11,0.02,0.16,0.02c0.32,0,0.62-0.19,0.75-0.49
        c0.14-0.33,0.3-0.62,0.44-0.88c0.42-0.8,0.82-1.56,0.4-2.33c-0.52-0.95-1.93-1.31-6.55-1.68c-1.39-0.11-2.78-0.16-4.12-0.16
        c-9.32,0-17.25,2.7-22.69,7.58c-7.89,2.22-17.96,4.29-26.34,5.41c-10.06,1.34-20.27,2.01-30.62,2.01c-5.94,0-12.07-0.19-18.4-0.58
        c-6.32-0.38-12.17-1.15-17.54-2.3l-1.15,2.29c0,0,0,0.01-0.01,0.01c6.31,3.52,19.42,18.12,21.85,27.02
        c4.94,14.17-36.17,2.71-27.6-33.06l-2.88-0.86c-0.12,0.6-0.22,1.2-0.32,1.79l-0.64-0.86c-50.96,35.71-124.93,45.73-137.27,7.04
        c-23.36-73.2,115.17-133.31,57.64-58.21c-9.25,12.05-21.81,24.23-36.22,34.21l1.73,2.3c56.64-37.25,71.41-96.95,17.54-65.83
        c-28.94,16.72-55.19,57.49-45.25,89.09c12.91,41.22,92.08,29.55,142.12-5.29c-5.8,45.89,46.95,54.83,31.3,22.92
        c-2.16-4.4-9.72-14.48-15.49-19.07c3.59,0.57,7.41,1.03,11.47,1.38c6.61,0.58,12.98,0.86,19.12,0.86
        c10.54,0,20.98-0.67,31.33-2.01c7.99-1.04,15.35-2.48,22.09-4.31c-0.32,0.45-0.62,0.91-0.9,1.38c-4.04,6.74-5.04,12.62-2.8,16.57
        c1.74,3.08,5.33,4.78,10.09,4.78c11.72,0,30.45-10.21,46.26-32.97c2.21,5.78,3.79,11.77,4.7,17.84
        c-52.76,17.55-94.96,53.52-112.84,78.67c-15.33,21.57-9.83,34.01-7.26,38.3c3,5,10,9,21.01,9c23.99,0,60.99-16,78.86-39.71
        c19.5-25.88,27.87-54.08,24.66-83.16c29.01-9.41,49.89-9.62,61.14-9.74c6.44-0.07,9.38-0.1,10.27-1.66
        c0.04-0.07,0.06-0.15,0.09-0.22c9.32,15.07,17.67,28.36,2.84,27.82c-8.9-0.77-18.93-5.75-26.45-10.63
        c-1.71,2.28-3.44,2.03,4.75,6.32c3.98,2.1,9.3,4.08,14.23,5.75C813.41,159.83,713.89,71.59,755,70.22z M677.63,121.43
        c2.27,23.75-4.36,49.23-21.38,75.49C640,222,602.67,237.99,579.61,237.99c-7.33,0-12.9-1.76-16.1-5.08
        c-2.39-2.49-3.52-5.89-3.36-10.1c1.34-34.71,48.6-69.84,88.66-89.36C658.47,128.73,668.16,124.69,677.63,121.43z"/>
      <path fill="#FFFFFF" stroke="#FFFFFF" stroke-width="3" stroke-miterlimit="10" d="M755,70.22v-2.87c-24.86,1.68-14.51,20.77-3.65,38.45c-2.27-0.08-4.58-0.13-6.86-0.13
        c-20.78,0-42.16,3.4-63.53,10.11c-1.11-7.32-2.98-14.64-5.58-21.78c-0.11-0.33-0.42-0.55-0.77-0.55c-0.03,0-0.05,0-0.08,0
        c-2.04,0.18-4.72,3.14-8.79,7.61c-8.28,9.1-20.78,22.86-36.85,22.86c-3.22,0-5.62-1.08-6.75-3.04c-1.21-2.09-0.93-5.08,0.75-7.98
        c2.91-5.04,10.4-10.43,22.68-10.42c2.96,0,6.1,0.32,9.32,0.95c0.05,0.01,0.11,0.02,0.16,0.02c0.32,0,0.62-0.19,0.75-0.49
        c0.14-0.33,0.3-0.62,0.44-0.88c0.42-0.8,0.82-1.56,0.4-2.33c-0.52-0.95-1.93-1.31-6.55-1.68c-1.39-0.11-2.78-0.16-4.12-0.16
        c-9.32,0-17.25,2.7-22.69,7.58c-7.89,2.22-17.96,4.29-26.34,5.41c-10.06,1.34-20.27,2.01-30.62,2.01c-5.94,0-12.07-0.19-18.4-0.58
        c-6.32-0.38-12.17-1.15-17.54-2.3l-1.15,2.29c0,0,0,0.01-0.01,0.01c6.31,3.52,19.42,18.12,21.85,27.02
        c4.94,14.17-36.17,2.71-27.6-33.06l-2.88-0.86c-0.12,0.6-0.22,1.2-0.32,1.79l-0.64-0.86c-50.96,35.71-124.93,45.73-137.27,7.04
        c-23.36-73.2,115.17-133.31,57.64-58.21c-9.25,12.05-21.81,24.23-36.22,34.21l1.73,2.3c56.64-37.25,71.41-96.95,17.54-65.83
        c-28.94,16.72-55.19,57.49-45.25,89.09c12.91,41.22,92.08,29.55,142.12-5.29c-5.8,45.89,46.95,54.83,31.3,22.92
        c-2.16-4.4-9.72-14.48-15.49-19.07c3.59,0.57,7.41,1.03,11.47,1.38c6.61,0.58,12.98,0.86,19.12,0.86
        c10.54,0,20.98-0.67,31.33-2.01c7.99-1.04,15.35-2.48,22.09-4.31c-0.32,0.45-0.62,0.91-0.9,1.38c-4.04,6.74-5.04,12.62-2.8,16.57
        c1.74,3.08,5.33,4.78,10.09,4.78c11.72,0,30.45-10.21,46.26-32.97c2.21,5.78,3.79,11.77,4.7,17.84
        c-52.76,17.55-94.96,53.52-112.84,78.67c-15.33,21.57-9.83,34.01-7.26,38.3c3,5,10,9,21.01,9c23.99,0,60.99-16,78.86-39.71
        c19.5-25.88,27.87-54.08,24.66-83.16c29.01-9.41,49.89-9.62,61.14-9.74c6.44-0.07,9.38-0.1,10.27-1.66
        c0.04-0.07,0.06-0.15,0.09-0.22c9.32,15.07,17.67,28.36,2.84,27.82c-8.9-0.77-18.93-5.75-26.45-10.63
        c-1.71,2.28-3.44,2.03,4.75,6.32c3.98,2.1,9.3,4.08,14.23,5.75C813.41,159.83,713.89,71.59,755,70.22z M677.63,121.43
        c2.27,23.75-4.36,49.23-21.38,75.49C640,222,602.67,237.99,579.61,237.99c-7.33,0-12.9-1.76-16.1-5.08
        c-2.39-2.49-3.52-5.89-3.36-10.1c1.34-34.71,48.6-69.84,88.66-89.36C658.47,128.73,668.16,124.69,677.63,121.43z"/>
    </g>  
  </svg>